<?xml version="1.0" standalone="no"?>
<!DOCTYPE svg PUBLIC "-//W3C//DTD SVG 20010904//EN"
 "http://www.w3.org/TR/2001/REC-SVG-20010904/DTD/svg10.dtd">
<svg version="1.0" xmlns="http://www.w3.org/2000/svg"
 width="160.000000pt" height="160.000000pt" viewBox="0 0 160.000000 160.000000"
 preserveAspectRatio="xMidYMid meet">
<metadata>
Created by potrace 1.14, written by Peter Selinger 2001-2017
</metadata>
<g transform="translate(0.000000,160.000000) scale(0.100000,-0.100000)"
fill="#000000" stroke="none">
<path d="M765 1547 c-30 -16 -42 -35 -75 -122 -17 -44 -35 -89 -40 -100 -5
-11 -23 -58 -40 -105 -18 -47 -36 -89 -41 -94 -5 -6 -35 -11 -66 -12 -122 -4
-349 -15 -365 -17 -30 -5 -58 -39 -58 -69 0 -35 28 -64 165 -173 95 -76 110
-88 162 -133 21 -18 22 -20 7 -73 -15 -54 -20 -75 -28 -117 -3 -12 -8 -27 -11
-32 -3 -5 -8 -20 -10 -32 -3 -13 -11 -50 -19 -83 -25 -103 -26 -123 -5 -149
34 -44 72 -30 295 110 76 48 147 87 157 86 9 0 70 -33 135 -73 240 -149 297
-168 322 -110 14 36 10 65 -44 276 l-46 180 22 18 c13 11 41 34 63 53 22 18
88 72 146 118 96 77 118 104 119 142 0 15 -31 49 -53 57 -17 6 -155 16 -327
22 -47 2 -92 4 -100 4 -15 1 -20 11 -85 181 -37 98 -39 104 -73 181 -30 67
-66 89 -107 66z"/>
<path d="M316 1462 c-43 -33 -83 -66 -87 -75 -8 -13 9 -30 78 -86 224 -178
253 -145 141 162 -13 37 -26 57 -37 57 -9 0 -52 -26 -95 -58z"/>
<path d="M1152 1503 c-13 -24 -80 -233 -83 -258 -3 -28 10 -55 28 -55 23 0 73
29 158 93 87 65 107 85 103 104 -4 15 -167 133 -184 133 -7 0 -17 -8 -22 -17z"/>
<path d="M783 352 c-17 -12 -39 -62 -77 -179 -20 -62 -33 -119 -30 -127 7 -17
20 -19 149 -17 44 1 84 6 89 11 13 13 -10 104 -54 219 -30 78 -54 107 -77 93z"/>
</g>
</svg>
